<svg width="484" height="484" viewBox="0 0 484 484" fill="none" xmlns="http://www.w3.org/2000/svg">
<circle cx="242" cy="242" r="242" fill="#2B283A"/>
<path d="M177.1 350.7L218.5 115.8H252.7L211.3 350.7H177.1ZM172.3 326.1L45.1 312.6H174.7L172.3 326.1ZM182.5 268.2L55.3 254.7H184.9L182.5 268.2ZM187.6 239.4L60.4 225.9H190L187.6 239.4ZM192.7 210.6L65.5 197.1H195.1L192.7 210.6ZM197.8 181.8L70.6 168.3H199.9L197.8 181.8ZM177.4 297L50.2 283.5H179.8L177.4 297ZM202.6 153L75.7 139.5H205L202.6 153Z" fill="#71DF80"/>
<path d="M209.581 54.9996L288.374 63.7326L253.902 374.759L175.109 366.026L209.581 54.9996Z" fill="#2B283A"/>
<path d="M385.019 152.181C383.802 150.724 382.28 149.551 380.561 148.747C378.842 147.942 376.967 147.525 375.069 147.525H204.373L199.76 122.05C198.854 117.071 196.23 112.568 192.345 109.327C188.459 106.085 183.559 104.31 178.499 104.31H158.999C155.56 104.31 152.263 105.676 149.832 108.107C147.4 110.539 146.034 113.836 146.034 117.275C146.034 120.713 147.4 124.01 149.832 126.442C152.263 128.873 155.56 130.239 158.999 130.239H174.891L201.802 278.248C202.525 282.179 204.019 285.928 206.199 289.278C202.34 293.794 199.709 299.228 198.561 305.057C197.412 310.886 197.786 316.912 199.644 322.554C201.502 328.197 204.784 333.265 209.171 337.27C213.558 341.276 218.903 344.083 224.691 345.421C230.479 346.76 236.514 346.584 242.214 344.912C247.915 343.239 253.088 340.125 257.234 335.872C261.381 331.618 264.362 326.367 265.889 320.626C267.416 314.885 267.438 308.848 265.953 303.096H302.685C300.883 310.076 301.308 317.445 303.901 324.172C306.493 330.899 311.124 336.647 317.145 340.612C323.166 344.577 330.276 346.56 337.48 346.285C344.684 346.009 351.622 343.488 357.322 339.075C363.023 334.662 367.201 328.577 369.272 321.671C371.343 314.766 371.204 307.386 368.874 300.564C366.544 293.742 362.139 287.818 356.276 283.623C350.413 279.428 343.385 277.171 336.176 277.167H231.566C230.555 277.166 229.577 276.811 228.802 276.164C228.026 275.516 227.502 274.617 227.32 273.624L224.814 259.882H344.927C352.013 259.882 358.874 257.394 364.313 252.853C369.752 248.312 373.425 242.005 374.69 235.033L387.827 162.801C388.165 160.933 388.089 159.014 387.603 157.179C387.118 155.344 386.236 153.637 385.019 152.181ZM241.105 311.739C241.105 313.448 240.598 315.119 239.649 316.54C238.699 317.962 237.349 319.069 235.77 319.724C234.191 320.378 232.453 320.549 230.776 320.215C229.1 319.882 227.56 319.059 226.351 317.85C225.142 316.641 224.319 315.101 223.986 313.425C223.652 311.748 223.823 310.01 224.477 308.431C225.132 306.852 226.239 305.502 227.661 304.552C229.082 303.603 230.753 303.096 232.462 303.096C234.755 303.096 236.953 304.006 238.574 305.627C240.195 307.248 241.105 309.446 241.105 311.739ZM336.176 320.381C334.467 320.381 332.796 319.875 331.374 318.925C329.953 317.975 328.845 316.625 328.191 315.046C327.537 313.467 327.366 311.729 327.699 310.052C328.033 308.376 328.856 306.836 330.065 305.627C331.273 304.418 332.813 303.595 334.49 303.262C336.166 302.928 337.904 303.1 339.483 303.754C341.063 304.408 342.413 305.516 343.362 306.937C344.312 308.358 344.819 310.029 344.819 311.739C344.819 314.031 343.908 316.229 342.287 317.85C340.667 319.471 338.468 320.381 336.176 320.381ZM349.14 230.409C348.959 231.398 348.44 232.292 347.671 232.939C346.902 233.586 345.932 233.944 344.927 233.953H220.103L209.105 173.453H359.533L349.14 230.409Z" fill="#71DF80"/>
</svg>
