<svg width="116" height="116" viewBox="0 0 116 116" fill="none" xmlns="http://www.w3.org/2000/svg">
<circle cx="58" cy="58" r="58" fill="#2B283A"/>
<path d="M43.968 81.056L52.8 30.944H60.096L51.264 81.056H43.968ZM42.944 75.808L15.808 72.928H43.456L42.944 75.808ZM45.12 63.456L17.984 60.576H45.632L45.12 63.456ZM46.208 57.312L19.072 54.432H46.72L46.208 57.312ZM47.296 51.168L20.16 48.288H47.808L47.296 51.168ZM48.384 45.024L21.248 42.144H48.832L48.384 45.024ZM44.032 69.6L16.896 66.72H44.544L44.032 69.6ZM49.408 38.88L22.336 36H49.92L49.408 38.88Z" fill="#71DF80"/>
<path d="M51.1888 13.1817L70.0731 15.2747L61.8112 89.8183L42.9268 87.7253L51.1888 13.1817Z" fill="#2B283A"/>
<path d="M92.2772 36.4731C91.9856 36.1238 91.621 35.8429 91.2089 35.65C90.7968 35.4572 90.3474 35.3572 89.8925 35.3571H48.982L47.8764 29.2516C47.6593 28.0584 47.0304 26.9792 46.0991 26.2023C45.1679 25.4253 43.9935 24.9998 42.7807 25H38.1071C37.2831 25 36.4928 25.3274 35.9101 25.9101C35.3274 26.4928 35 27.2831 35 28.1071C35 28.9312 35.3274 29.7215 35.9101 30.3042C36.4928 30.8869 37.2831 31.2143 38.1071 31.2143H41.9159L48.3658 66.6874C48.539 67.6296 48.8971 68.5282 49.4196 69.3311C48.4946 70.4135 47.8641 71.7159 47.5889 73.1129C47.3137 74.5098 47.4032 75.9541 47.8486 77.3064C48.294 78.6587 49.0804 79.8734 50.1318 80.8334C51.1833 81.7934 52.4644 82.4662 53.8516 82.787C55.2388 83.1077 56.6852 83.0657 58.0514 82.6648C59.4175 82.2638 60.6574 81.5177 61.6512 80.4982C62.6451 79.4787 63.3595 78.2203 63.7255 76.8443C64.0915 75.4684 64.0968 74.0214 63.7409 72.6428H72.5444C72.1124 74.3158 72.2143 76.0819 72.8357 77.6942C73.4571 79.3064 74.567 80.684 76.01 81.6343C77.4531 82.5845 79.1571 83.0599 80.8837 82.9939C82.6102 82.9278 84.273 82.3237 85.6392 81.2659C87.0054 80.2082 88.0068 78.7498 88.5032 77.0948C88.9997 75.4398 88.9663 73.671 88.4078 72.036C87.8493 70.4009 86.7936 68.9813 85.3884 67.9758C83.9833 66.9704 82.2989 66.4294 80.5711 66.4285H55.4992C55.2571 66.4282 55.0227 66.3431 54.8368 66.188C54.6509 66.0328 54.5252 65.8174 54.4816 65.5792L53.8809 62.2857H82.6684C84.3667 62.2857 86.011 61.6895 87.3147 60.6011C88.6184 59.5128 89.4986 58.0013 89.8018 56.3303L92.9504 39.0184C93.0314 38.5707 93.013 38.1107 92.8967 37.6709C92.7804 37.2311 92.5689 36.8222 92.2772 36.4731ZM57.7856 74.7142C57.7856 75.1239 57.6641 75.5244 57.4365 75.865C57.2089 76.2057 56.8853 76.4712 56.5068 76.628C56.1283 76.7848 55.7118 76.8258 55.31 76.7458C54.9082 76.6659 54.5391 76.4686 54.2494 76.1789C53.9597 75.8892 53.7625 75.5202 53.6825 75.1183C53.6026 74.7165 53.6436 74.3 53.8004 73.9215C53.9572 73.543 54.2227 73.2195 54.5633 72.9919C54.904 72.7643 55.3045 72.6428 55.7141 72.6428C56.2635 72.6428 56.7904 72.861 57.1789 73.2495C57.5673 73.638 57.7856 74.1648 57.7856 74.7142ZM80.5711 76.7856C80.1614 76.7856 79.7609 76.6642 79.4203 76.4366C79.0797 76.2089 78.8142 75.8854 78.6574 75.5069C78.5006 75.1284 78.4596 74.7119 78.5395 74.3101C78.6194 73.9083 78.8167 73.5392 79.1064 73.2495C79.3961 72.9598 79.7652 72.7625 80.167 72.6826C80.5688 72.6027 80.9853 72.6437 81.3638 72.8005C81.7423 72.9573 82.0658 73.2228 82.2934 73.5634C82.521 73.904 82.6425 74.3045 82.6425 74.7142C82.6425 75.2636 82.4243 75.7905 82.0358 76.1789C81.6474 76.5674 81.1205 76.7856 80.5711 76.7856ZM83.6782 55.2221C83.6349 55.459 83.5104 55.6734 83.3261 55.8284C83.1418 55.9834 82.9092 56.0693 82.6684 56.0714H52.752L50.1161 41.5714H86.1691L83.6782 55.2221Z" fill="#71DF80"/>
</svg>
